<?xml version="1.0" encoding="iso-8859-1"?>
<!-- Uploaded to: SVG Repo, www.svgrepo.com, Generator: SVG Repo Mixer Tools -->
<!DOCTYPE svg PUBLIC "-//W3C//DTD SVG 1.1//EN" "http://www.w3.org/Graphics/SVG/1.1/DTD/svg11.dtd">
<svg fill="#000000" version="1.1" id="Capa_1" xmlns="http://www.w3.org/2000/svg" xmlns:xlink="http://www.w3.org/1999/xlink" 
	 width="270px" height="270px" viewBox="0 0 64.148 64.147"
	 xml:space="preserve">
<g>
	<g>
		<path d="M63.372,25.784l-0.619,3.71l-0.62-3.982l-0.619,2.714l-0.414-2.172l-0.482,0.181L59.998,4.517l-0.551,22.715l-0.552-0.905
			l-0.482,2.444L58,26.96l-0.689,2.444l-0.895-4.072v5.068l-0.688-2.896L54.97,28.5v-1.811l-0.62,0.363l-0.688-23.62l-0.414,22.805
			l-0.688,0.091l-0.413,3.892l-0.414-3.62l-0.344,3.981l-0.414-3.167l-0.551,2.353L49.667,9.948l-0.274,16.38l-0.621-1.268v4.616
			l-0.413-3.259l-0.415,3.711l-0.412-4.707l-0.482,3.982l-0.482-2.353l-0.552,2.172l-0.413-1.811l-0.413,2.081l-0.48-21.717
			l-0.345,15.927l-0.62-4.163l-0.345,9.502l-0.413-2.172l-0.414,1.539l-0.414-2.353l-0.688,2.624l-0.346-2.624l-0.618,4.977
			l-0.483-16.562l-0.548,12.037l-0.552-0.633l-0.62,4.071l-0.482-4.525l-0.344,3.168l-0.414-3.259l-0.414,2.263l-0.344-1.267
			l-0.552,3.077V25.15l-0.688,2.172v-3.981l-0.414,1.086L34.239,7.142L33.55,29.404l-0.414-2.715L32.792,28.5l-0.414-2.715
			l-0.482,3.168l-0.345-1.72L31,30.943l-0.483-14.842l-0.549,12.85l-0.688-2.986l-0.344,1.357l-0.483-1.539l-0.481,4.797
			l-0.414-3.258l-0.482,1.9l-0.413-3.439l-0.345,2.987l-0.55-3.71l-0.551,3.982L24.872,6.871L24.39,29.224l-0.551-3.62l-0.275,2.805
			l-0.345-1.447l-0.551,1.629l-0.413-3.53l-0.413,3.62l-0.275-4.253l-0.62,5.973L20.533,7.323l-0.482,24.434l-0.414-4.706
			l-0.276,1.447l-0.344-2.534l-0.414,1.9l-0.275-1.72l-0.414,0.814L17.5,24.696l-0.275,5.159l-0.345-2.172l-0.551,0.905
			l-0.345-2.444l-0.551,1.9l-0.482-15.837l-0.482,17.918l-0.482-2.986l-0.414,1.72V25.06c0,0-0.551,3.982-0.551,4.253
			c0,0.272-0.482-1.991-0.482-1.991l-0.414,1.991l-0.345-1.539l-0.413,1.72l-0.757-18.189l-0.482,19.458l-0.414-5.249l-0.414,3.71
			l-0.414-2.896c0,0-0.345,2.624-0.345,3.077S7.992,26.69,7.992,26.69s-0.414,2.263-0.414,2.715s-0.414-4.977-0.414-4.977
			l-0.681,4.976V25.15l-0.482,6.154V6.328L5.244,30.309l-0.345-3.258l-0.482,1.992l-0.414-1.9l-0.55,1.991V26.87l-0.757,1.811
			v-2.624L2.214,28.59l-0.276-2.715l-0.551,3.982L1.043,10.309L0.629,29.178l-0.345-1.674L0,30.852v1.086v0.272v1.629l0.689-0.544
			l0.068,5.068l0.62-3.711l0.62,3.983l0.62-2.716l0.414,2.173l0.482-0.182l0.62,21.72l0.551-22.714l0.551,0.905l0.483-2.443
			l0.414,1.81l0.688-2.444l0.896,4.072V33.75l0.688,2.895l0.757-0.994v1.81l0.62-0.361l0.688,23.617l0.414-22.806l0.688-0.089
			l0.414-3.893l0.414,3.619l0.344-3.981l0.414,3.168l0.551-2.354l0.757,19.818l0.275-16.378l0.62,1.265v-4.614l0.413,3.258
			l0.414-3.71l0.414,4.707l0.482-3.984l0.482,2.354l0.551-2.173l0.414,1.811l0.414-2.081l0.482,21.72l0.345-11.854l0.62,1.447
			l0.345-10.859l0.414,2.172l0.414-1.539l0.414,2.354l0.688-2.625l0.344,2.625l0.62-4.978l0.482,16.562l0.552-12.036l0.551,0.633
			l0.62-4.072l0.482,4.526l0.345-3.168l0.414,3.257l0.414-2.262l0.345,1.268l0.551-3.078v4.254l0.689-2.173v3.983l0.414-1.087
			l0.414,17.285l0.688-22.261L31,37.461l0.345-1.811l0.414,2.715l0.482-3.168l0.345,1.721l0.551-3.711l0.482,14.842l0.551-12.852
			l0.688,2.986l0.346-1.357l0.481,1.539l0.482-4.797l0.414,3.26l0.482-1.9l0.414,3.438l0.344-2.986l0.551,3.711l0.552-3.983
			l0.345,22.173l0.482-22.354l0.55,3.619l0.276-2.805l0.345,1.448l0.551-1.629l0.413,3.527l0.413-3.619l0.276,4.254l0.619-5.973
			l0.414,23.077l0.482-24.435l0.414,4.706l0.274-1.448l0.345,2.535l0.414-1.9l0.274,1.719l0.413-0.813l0.413,2.262l0.275-5.157
			l0.345,2.171l0.552-0.905l0.344,2.443l0.552-1.899l0.481,15.838l0.482-17.919l0.482,2.986l0.414-1.72v3.801
			c0,0,0.551-3.981,0.551-4.253c0-0.272,0.482,1.99,0.482,1.99l0.414-1.99l0.344,1.538l0.414-1.719l0.758,18.188l0.482-19.456
			l0.413,5.249l0.413-3.711l0.414,2.896c0,0,0.345-2.624,0.345-3.076c0-0.454,0.551,2.714,0.551,2.714s0.413-2.263,0.413-2.714
			c0-0.452,0.414,4.976,0.414,4.976l0.689-4.976v4.252l0.481-6.153V57.82l0.757-23.983l0.345,3.26l0.483-1.991l0.413,1.899
			l0.552-1.989v2.262l0.757-1.811v2.625l0.482-2.535l0.274,2.715l0.551-3.982l0.345,19.548l0.414-18.868l0.344,1.674l0.285-3.349
			v-1.085v-0.272v-1.629l-0.688,0.542L63.372,25.784z"/>
	</g>
</g>
</svg>